<?xml version="1.0" standalone="no"?>
<!DOCTYPE svg PUBLIC "-//W3C//DTD SVG 20010904//EN"
 "http://www.w3.org/TR/2001/REC-SVG-20010904/DTD/svg10.dtd">
<svg version="1.0" xmlns="http://www.w3.org/2000/svg"
 width="1456.000000pt" height="1456.000000pt" viewBox="0 0 1456.000000 1456.000000"
 preserveAspectRatio="xMidYMid meet">
<metadata>
Created by potrace 1.11, written by Peter Selinger 2001-2013
</metadata>
<g transform="translate(0.000000,1456.000000) scale(0.100000,-0.100000)"
fill="#000000" stroke="none">
<path d="M11039 11168 c-1 -29 -1 -391 0 -399 1 -7 60 -12 116 -10 23 1 115 1
160 0 47 -1 59 -1 80 1 11 1 37 -1 58 -3 20 -3 37 -1 37 5 0 5 5 6 11 3 5 -4
303 -6 662 -5 359 0 663 0 677 -1 26 -1 41 -1 75 0 23 1 115 1 160 0 43 -1 57
-1 80 0 23 1 115 1 160 0 43 -1 57 -1 80 0 23 1 115 1 160 0 43 -1 57 -1 80 0
11 1 43 1 70 0 28 0 65 1 83 2 18 1 35 -1 39 -5 4 -4 8 -66 8 -138 l1 -131
-43 -69 c-24 -39 -43 -71 -43 -72 0 -2 -63 -108 -140 -236 -77 -128 -140 -237
-140 -241 0 -5 -4 -9 -10 -9 -5 0 -10 -4 -10 -10 0 -5 -29 -58 -65 -116 -36
-59 -65 -110 -65 -115 0 -5 -4 -9 -8 -9 -5 0 -14 -16 -22 -35 -8 -19 -17 -35
-22 -35 -4 0 -8 -7 -8 -15 0 -8 -3 -15 -8 -15 -4 0 -15 -17 -25 -37 -10 -21
-42 -78 -72 -127 -30 -49 -55 -93 -55 -97 0 -5 -4 -9 -10 -9 -5 0 -10 -6 -10
-13 0 -7 -7 -22 -15 -32 -9 -11 -58 -92 -110 -180 -52 -88 -99 -167 -104 -175
-5 -8 -47 -78 -92 -155 -46 -77 -87 -141 -91 -143 -4 -2 -8 -8 -8 -13 0 -8
-40 -79 -85 -149 -29 -45 -69 -114 -97 -167 -12 -24 -26 -43 -30 -43 -4 0 -8
-4 -8 -10 0 -13 -62 -114 -72 -118 -4 -2 -8 -10 -8 -17 0 -7 -15 -35 -32 -63
-18 -27 -42 -65 -53 -83 -11 -19 -32 -54 -47 -79 -15 -25 -37 -63 -49 -85 -12
-22 -30 -51 -39 -65 -18 -25 -234 -387 -254 -425 -6 -11 -20 -34 -32 -50 -12
-17 -23 -34 -25 -40 -3 -8 -136 -232 -196 -330 -7 -11 -18 -31 -25 -45 -7 -14
-15 -27 -18 -30 -3 -3 -58 -93 -122 -200 -64 -107 -197 -331 -297 -498 -100
-166 -181 -306 -181 -310 0 -4 719 -7 1598 -7 l1597 0 1 -959 1 -958 -39 5
c-21 3 -38 2 -38 -2 0 -4 -21 -5 -47 -3 -48 4 -61 4 -98 3 -11 -1 -42 -1 -70
0 -27 0 -59 0 -70 -1 -33 -1 -238 -1 -265 1 -26 1 -41 1 -75 0 -11 -1 -42 -1
-70 0 -27 0 -59 0 -70 -1 -33 -1 -238 -1 -265 1 -26 1 -41 1 -75 0 -23 -1
-115 -1 -160 0 -47 1 -59 1 -80 -1 -11 -1 -37 1 -57 3 -21 3 -38 1 -38 -4 0
-6 -6 -6 -17 0 -10 5 -26 5 -39 1 -12 -5 -24 -6 -27 -4 -10 10 -77 12 -77 3 0
-6 -6 -6 -17 0 -10 5 -26 5 -39 1 -12 -5 -24 -6 -27 -4 -10 10 -77 12 -77 3 0
-6 -7 -6 -17 -1 -10 5 -27 6 -38 2 -11 -4 -27 -5 -35 -1 -14 6 -41 6 -65 1 -5
-1 -30 -1 -55 0 -50 2 -66 2 -95 1 -11 -1 -42 -1 -70 0 -27 0 -59 0 -70 -1
-33 -1 -238 -1 -265 1 -26 1 -41 1 -75 0 -11 -1 -42 -1 -70 0 -27 0 -59 0 -70
-1 -33 -1 -238 -1 -265 1 -26 1 -41 1 -75 0 -23 -1 -115 -1 -160 0 -47 1 -59
1 -80 -1 -11 -1 -37 1 -57 3 -21 3 -38 1 -38 -4 0 -6 -6 -6 -17 0 -10 5 -26 5
-39 1 -12 -5 -24 -6 -27 -4 -10 10 -77 12 -77 3 0 -6 -6 -6 -17 0 -10 5 -26 5
-39 1 -12 -5 -24 -6 -27 -4 -10 10 -77 12 -77 3 0 -6 -6 -6 -17 0 -10 5 -26 5
-39 1 -12 -5 -24 -6 -27 -4 -10 10 -77 12 -77 3 0 -6 -6 -6 -17 0 -10 5 -26 5
-39 1 -12 -5 -24 -6 -27 -4 -10 10 -77 12 -77 3 0 -6 -6 -6 -17 0 -10 5 -26 5
-39 1 -12 -5 -24 -6 -27 -4 -10 10 -77 12 -77 3 0 -6 -6 -6 -17 0 -10 5 -26 5
-39 1 -12 -5 -24 -6 -27 -4 -10 10 -77 12 -77 3 0 -6 -6 -6 -17 0 -10 5 -26 5
-39 1 -12 -5 -24 -6 -27 -4 -8 8 -77 13 -77 5 0 -4 -21 -5 -47 -3 -48 4 -61 4
-98 3 -11 -1 -42 -1 -70 0 -27 0 -59 0 -70 -1 -33 -1 -238 -1 -265 1 -26 1
-41 1 -75 0 -11 -1 -42 -1 -70 0 -27 0 -59 0 -70 -1 -33 -1 -238 -1 -265 1
-26 1 -41 1 -75 0 -23 -1 -115 -1 -160 0 -47 1 -59 1 -80 -1 -11 -1 -37 1 -57
3 -21 3 -38 1 -38 -4 0 -6 -6 -6 -17 0 -10 5 -26 5 -39 1 -12 -5 -24 -6 -27
-4 -10 10 -77 12 -77 3 0 -6 -6 -6 -17 0 -10 5 -26 5 -39 1 -12 -5 -24 -6 -27
-4 -10 10 -77 12 -77 3 0 -6 -6 -6 -17 0 -10 5 -26 5 -39 1 -12 -5 -24 -6 -27
-4 -8 8 -77 13 -77 5 0 -4 -21 -5 -47 -3 -48 4 -61 4 -98 3 -11 -1 -42 -1 -70
0 -27 0 -59 0 -70 -1 -33 -1 -238 -1 -265 1 -26 1 -41 1 -75 0 -11 -1 -42 -1
-70 0 -27 0 -59 0 -70 -1 -33 -1 -238 -1 -265 1 -26 1 -41 1 -75 0 -23 -1
-115 -1 -160 0 -47 1 -59 1 -80 -1 -11 -1 -37 1 -57 3 -21 3 -38 1 -38 -4 0
-6 -6 -6 -17 0 -10 5 -26 5 -39 1 -12 -5 -24 -6 -27 -4 -10 10 -77 12 -77 3 0
-6 -6 -6 -17 0 -10 5 -26 5 -39 1 -12 -5 -24 -6 -27 -4 -10 10 -77 12 -77 3 0
-6 -6 -6 -17 0 -10 5 -26 5 -39 1 -12 -5 -24 -6 -27 -4 -8 8 -77 13 -77 5 0
-4 -21 -5 -47 -3 -48 4 -61 4 -98 3 -11 -1 -42 -1 -70 0 -27 0 -59 0 -70 -1
-33 -1 -238 -1 -265 1 -26 1 -41 1 -75 0 -11 -1 -42 -1 -70 0 -27 0 -59 0 -70
-1 -33 -1 -238 -1 -265 1 -26 1 -41 1 -75 0 -23 -1 -115 -1 -160 0 -47 1 -59
1 -80 -1 -11 -1 -37 1 -57 3 -21 3 -38 1 -38 -4 0 -6 -6 -6 -17 0 -10 5 -26 5
-39 1 -12 -5 -24 -6 -27 -4 -10 10 -77 12 -77 3 0 -6 -6 -6 -17 0 -10 5 -26 5
-39 1 -12 -5 -24 -6 -27 -4 -10 10 -77 12 -77 3 0 -6 -6 -6 -17 0 -10 5 -26 5
-39 1 -12 -5 -24 -6 -27 -4 -8 8 -77 13 -77 5 0 -4 -21 -5 -47 -3 -48 4 -61 4
-98 3 -11 -1 -42 -1 -70 0 -27 0 -59 0 -70 -1 -33 -1 -238 -1 -265 1 -26 1
-41 1 -75 0 -11 -1 -42 -1 -70 0 -27 0 -59 0 -70 -1 -33 -1 -238 -1 -265 1
-26 1 -41 1 -75 0 -23 -1 -115 -1 -160 0 -47 1 -59 1 -80 -1 -11 -1 -37 1 -57
3 -21 3 -38 1 -38 -4 0 -6 -6 -6 -17 0 -10 5 -26 5 -39 1 -12 -5 -24 -6 -27
-4 -10 10 -77 12 -77 3 0 -6 -6 -6 -17 0 -10 5 -26 5 -39 1 -12 -5 -24 -6 -27
-4 -10 10 -77 12 -77 3 0 -6 -6 -6 -17 0 -10 5 -26 5 -39 1 -12 -5 -24 -6 -27
-4 -8 8 -77 13 -77 5 0 -4 -21 -5 -47 -3 -48 4 -60 4 -98 3 -11 0 -51 0 -90 0
-65 1 -73 3 -115 37 -25 20 -51 41 -58 47 -7 5 -23 19 -35 30 -12 11 -56 47
-97 80 -41 33 -86 70 -100 82 -38 32 -65 55 -100 83 -17 14 -41 33 -53 44 -12
10 -42 35 -67 55 -25 20 -47 38 -50 41 -6 6 -105 87 -134 110 -11 8 -32 26
-47 40 -15 14 -41 35 -56 47 -15 12 -38 30 -49 40 -12 10 -39 32 -60 48 -21
17 -50 40 -64 52 l-25 22 280 276 c154 152 324 319 378 372 53 53 97 99 97
102 0 6 -269 281 -274 281 -1 0 -77 -73 -168 -162 -91 -90 -307 -300 -478
-468 -172 -168 -341 -333 -376 -368 l-64 -63 87 -72 c49 -40 95 -77 103 -84
100 -81 226 -188 228 -195 2 -4 8 -8 13 -8 8 0 37 -23 83 -65 6 -6 47 -39 91
-75 44 -35 82 -67 85 -70 3 -3 30 -25 60 -50 30 -25 57 -47 60 -50 3 -3 39
-32 80 -65 41 -33 88 -72 105 -87 38 -34 66 -57 103 -85 16 -13 87 -71 159
-130 71 -60 161 -134 200 -166 l70 -57 6517 0 6516 0 0 1388 0 1388 -1435 0
c-789 -1 -1435 2 -1435 5 0 4 29 55 65 114 36 59 65 108 65 110 0 7 65 110 73
116 5 3 8 9 8 13 -1 3 5 16 13 29 49 79 186 309 186 313 0 3 5 10 10 17 6 7
41 63 78 125 37 63 80 135 95 160 15 26 35 62 44 80 9 17 20 32 25 32 4 0 8 4
8 9 0 6 81 145 180 310 99 166 180 303 180 306 0 3 5 11 10 18 6 7 146 239
311 517 166 278 309 517 320 532 10 15 19 32 19 38 0 5 5 10 12 10 6 0 8 3 5
7 -4 3 -3 11 2 17 20 24 141 228 141 237 0 5 4 9 9 9 5 0 11 6 13 13 3 11 168
292 220 375 10 15 22 36 28 47 5 11 21 38 35 60 13 22 34 56 45 75 11 19 31
52 43 73 32 55 158 264 184 306 13 20 33 56 46 81 l24 45 0 423 0 422 -1573 0
-1574 0 -1 -22z"/>
<path d="M10252 11089 c-204 -38 -350 -243 -319 -448 21 -140 128 -267 266
-316 74 -26 200 -21 275 10 40 17 116 73 139 102 10 13 24 29 30 36 14 15 47
78 48 92 1 6 5 18 11 28 13 25 18 140 7 184 -5 21 -12 46 -14 56 -8 34 -53
103 -95 145 -43 43 -123 93 -152 95 -10 1 -18 4 -18 7 0 4 -6 7 -12 7 -7 1
-38 3 -68 5 -30 3 -74 1 -98 -3z m189 -127 c59 -28 113 -81 141 -139 18 -38
23 -66 23 -131 0 -58 -4 -85 -13 -91 -8 -5 -13 -12 -12 -17 3 -18 -43 -80 -83
-110 -60 -44 -112 -61 -185 -58 -205 7 -336 221 -249 405 37 77 105 135 187
159 43 13 144 3 191 -18z"/>
<path d="M7727 10875 c-1 -5 -2 -163 -1 -351 l1 -341 74 -109 c41 -60 79 -114
84 -120 6 -7 39 -55 75 -108 84 -124 307 -448 317 -461 4 -5 20 -28 35 -50 14
-22 61 -89 103 -150 99 -143 187 -272 200 -293 6 -9 12 -19 15 -22 6 -6 112
-158 181 -260 24 -36 46 -67 49 -70 3 -3 14 -18 24 -35 11 -16 23 -34 28 -40
18 -23 99 -141 105 -155 4 -8 11 -19 15 -25 5 -5 17 -21 28 -34 11 -13 20 -28
20 -32 0 -4 6 -14 13 -21 7 -7 42 -56 77 -108 36 -52 67 -97 70 -100 5 -5 118
-171 135 -199 6 -9 13 -18 16 -21 3 -3 19 -25 35 -49 41 -62 52 -79 109 -160
47 -67 222 -320 409 -593 45 -65 218 -316 386 -559 168 -243 323 -468 345
-501 35 -52 65 -74 65 -48 0 9 62 116 115 200 40 64 79 135 81 149 2 8 -7 27
-19 42 -12 15 -47 63 -77 108 -97 142 -229 336 -238 346 -4 6 -43 62 -86 125
-43 63 -82 117 -87 118 -5 2 -9 9 -9 16 0 7 -11 26 -25 42 -14 16 -25 32 -25
35 0 3 -9 16 -20 29 -11 13 -20 29 -20 36 0 7 -4 14 -8 16 -5 2 -28 32 -53 68
-24 36 -47 67 -51 68 -5 2 -8 10 -8 17 0 7 -4 15 -8 17 -5 2 -28 32 -52 68
-24 36 -69 102 -102 147 -32 44 -58 86 -58 91 0 6 -3 12 -8 14 -10 4 -172 237
-172 248 0 4 -4 10 -8 12 -5 2 -33 39 -62 83 -29 44 -57 82 -62 83 -4 2 -8 10
-8 18 0 8 -4 14 -10 14 -5 0 -10 7 -10 15 0 9 -7 18 -15 21 -8 4 -15 12 -15
18 0 7 -8 21 -18 32 -10 10 -21 26 -25 34 -4 8 -38 60 -77 115 -39 55 -94 134
-122 175 -28 41 -55 77 -60 78 -4 2 -8 8 -8 14 0 8 -55 93 -70 108 -15 15 -70
100 -70 108 0 6 -4 12 -8 14 -9 3 -20 19 -287 408 -104 151 -192 277 -195 280
-4 3 -9 12 -13 20 -4 8 -41 62 -82 120 -42 58 -78 113 -82 123 -3 9 -9 17 -14
17 -4 0 -14 11 -21 24 -7 14 -32 52 -55 85 -24 34 -43 65 -43 70 0 5 -4 11 -8
13 -4 2 -28 32 -52 68 -25 36 -47 67 -50 70 -3 3 -23 32 -45 65 -22 33 -57 84
-78 113 l-39 54 -1 276 -2 276 -182 0 c-114 1 -184 -3 -186 -9z"/>
<path d="M9627 10464 c-1 -1 -22 -5 -46 -8 -111 -15 -232 -104 -283 -207 -43
-88 -46 -101 -44 -189 1 -72 6 -95 32 -150 40 -85 114 -162 190 -197 68 -31
78 -33 159 -35 88 -2 126 6 194 42 74 40 135 104 176 186 26 53 29 69 29 159
1 92 -2 105 -31 165 -65 137 -199 226 -351 234 -13 1 -24 1 -25 0z m141 -139
c69 -31 134 -103 150 -165 22 -85 15 -166 -19 -226 -24 -44 -79 -104 -94 -104
-6 0 -16 -5 -23 -12 -23 -23 -87 -37 -152 -34 -154 7 -279 139 -271 286 3 56
7 79 14 86 4 4 7 16 7 26 0 10 5 18 10 18 6 0 10 6 10 13 0 14 19 36 67 78 28
25 94 54 138 62 41 7 112 -6 163 -28z"/>
<path d="M10926 10453 c-123 -25 -223 -105 -280 -223 -28 -60 -31 -73 -31
-167 0 -65 4 -106 12 -114 6 -6 9 -17 7 -24 -3 -6 2 -18 11 -25 8 -7 15 -18
15 -24 0 -7 22 -37 49 -67 104 -117 256 -162 401 -119 294 86 384 444 167 659
-88 88 -226 129 -351 104z m199 -127 c134 -65 193 -203 150 -348 -15 -46 -30
-71 -73 -113 -29 -30 -57 -54 -60 -53 -4 1 -17 -3 -29 -10 -32 -18 -108 -27
-153 -18 -49 10 -55 12 -95 33 -82 43 -146 144 -147 233 -2 92 21 152 80 215
84 89 217 114 327 61z"/>
<path d="M11637 9844 c-1 -2 -14 -5 -28 -7 -105 -20 -221 -107 -270 -206 -39
-79 -53 -184 -36 -271 3 -14 50 -113 71 -150 11 -19 108 -100 119 -99 4 0 19
-7 32 -15 14 -9 50 -22 82 -29 133 -29 253 6 358 104 48 45 105 150 113 206
13 102 5 159 -36 246 -52 109 -145 183 -267 214 -21 5 -134 11 -138 7z m166
-129 c46 -19 113 -78 135 -119 83 -154 21 -339 -136 -408 -155 -69 -348 25
-389 188 -10 39 -10 119 -1 154 26 94 108 172 213 201 41 11 133 3 178 -16z"/>
<path d="M10235 9833 c-123 -22 -230 -98 -290 -206 -26 -47 -30 -60 -42 -122
-11 -59 -2 -153 19 -203 25 -57 91 -148 121 -167 88 -54 110 -65 159 -78 89
-22 181 -11 266 32 204 104 279 354 165 548 -50 86 -153 165 -245 188 -31 8
-125 13 -153 8z m135 -116 c66 -25 89 -39 122 -71 62 -60 81 -109 82 -211 1
-53 -5 -81 -22 -116 -62 -127 -208 -192 -341 -152 -239 72 -279 394 -63 520
68 40 162 53 222 30z"/>
<path d="M10951 9268 c-120 -19 -234 -104 -292 -219 -30 -60 -32 -71 -33 -169
0 -96 2 -110 29 -164 33 -68 120 -162 164 -177 17 -6 31 -15 31 -19 0 -6 27
-15 80 -24 3 -1 10 -4 15 -7 13 -7 110 -4 155 5 101 19 223 117 268 215 33 70
33 71 37 157 6 114 -31 207 -115 291 -56 56 -141 102 -202 109 -24 3 -52 6
-63 8 -11 1 -44 -1 -74 -6z m158 -117 c96 -29 177 -133 188 -239 6 -54 -13
-162 -29 -162 -4 0 -7 -4 -5 -10 3 -14 -91 -107 -121 -118 -15 -6 -36 -13 -47
-18 -30 -11 -116 -12 -150 -2 -16 5 -35 10 -42 12 -7 1 -33 17 -58 35 -129 92
-155 277 -59 406 69 93 203 133 323 96z"/>
<path d="M11700 8866 c-43 -13 -138 -67 -165 -94 -83 -81 -128 -191 -124 -300
6 -153 87 -275 229 -345 58 -28 76 -32 160 -33 52 -1 100 1 105 6 6 4 27 13
47 19 39 13 119 70 155 111 12 14 36 54 54 89 55 112 48 258 -19 366 -43 70
-106 125 -182 160 -53 24 -79 29 -145 30 -44 1 -96 -3 -115 -9z m224 -121
c209 -100 223 -392 24 -508 -75 -43 -156 -51 -238 -22 -71 25 -143 86 -156
133 -3 12 -10 22 -14 22 -5 0 -9 8 -8 18 0 9 -3 31 -7 47 -21 90 2 168 75 248
30 33 62 53 130 80 30 12 155 0 194 -18z"/>
<path d="M10159 8815 c-3 -2 -17 -6 -32 -9 -41 -7 -121 -54 -166 -97 -124
-119 -157 -302 -82 -454 149 -301 570 -294 714 12 28 60 31 78 31 159 0 85 -2
96 -37 166 -69 142 -185 218 -338 224 -47 2 -88 2 -90 -1z m156 -115 c125 -41
197 -138 201 -270 7 -253 -305 -388 -484 -208 -23 23 -47 51 -48 58 0 3 -9 23
-19 45 -26 60 -24 149 7 216 41 89 106 142 202 164 57 13 90 12 141 -5z"/>
<path d="M1736 8610 c-1 -3 -1 -11 0 -17 1 -7 2 -20 3 -28 0 -8 7 -15 15 -15
65 0 173 -126 223 -260 15 -41 9 -3998 -6 -4035 -31 -76 -60 -122 -102 -164
-57 -57 -67 -63 -103 -76 -34 -12 -48 -64 -18 -66 124 -7 1493 -2 1495 6 9 27
-7 52 -41 65 -84 30 -198 192 -218 310 -12 70 -11 1560 1 1561 6 0 550 1 1210
3 660 2 1220 6 1245 10 296 42 546 189 717 422 81 111 192 341 209 434 3 14
11 45 19 70 8 25 17 59 20 75 3 17 7 44 10 60 3 17 7 41 10 55 12 69 19 156
19 255 0 145 -7 208 -40 371 -23 117 -98 285 -179 404 -55 80 -180 214 -235
253 -222 155 -365 223 -602 284 l-103 26 -1773 1 c-975 1 -1775 -1 -1776 -4z
m2932 -754 c23 -4 52 -9 65 -11 202 -31 430 -141 531 -257 111 -128 150 -288
111 -453 -9 -39 -18 -74 -19 -80 -4 -21 -41 -92 -69 -135 -88 -135 -276 -252
-442 -275 -22 -3 -47 -9 -55 -12 -16 -7 -1776 -14 -1800 -7 -13 3 -15 80 -15
616 0 337 3 615 7 618 10 8 1639 4 1686 -4z"/>
<path d="M10958 8335 c-1 -2 -17 -5 -34 -8 -85 -13 -220 -118 -255 -196 -8
-17 -17 -31 -20 -31 -3 0 -6 -6 -7 -12 -1 -21 -7 -42 -13 -53 -4 -5 -7 -40 -8
-77 -2 -65 23 -188 39 -188 4 0 10 -10 14 -23 3 -12 29 -47 58 -76 94 -96 229
-140 358 -117 39 7 136 52 160 73 88 80 129 145 150 238 42 187 -69 380 -260
453 -31 11 -173 25 -182 17z m175 -132 c177 -86 222 -306 92 -451 -196 -218
-545 -39 -491 253 16 86 97 178 182 208 65 23 158 18 217 -10z"/>
<path d="M10905 7456 c-112 -36 -200 -112 -249 -216 -26 -56 -31 -78 -33 -157
-2 -60 1 -93 8 -93 5 0 8 -4 5 -9 -11 -17 42 -116 89 -169 80 -88 178 -130
301 -127 67 2 93 7 146 32 102 48 187 143 220 246 19 60 18 176 -2 228 -10 26
-15 50 -12 53 3 4 1 6 -5 6 -6 0 -16 14 -23 30 -14 33 -124 140 -144 140 -6 0
-17 5 -24 12 -34 34 -200 48 -277 24z m191 -105 c50 -13 113 -58 148 -104 87
-114 68 -296 -41 -386 -57 -47 -121 -69 -194 -67 -65 3 -75 5 -119 24 -62 26
-146 129 -157 192 -10 62 0 180 16 180 5 0 11 10 15 23 7 28 81 105 116 119
81 35 141 40 216 19z"/>
<path d="M5870 5360 c0 -3 -29 -6 -63 -7 -41 -1 -99 -13 -162 -34 -245 -81
-434 -281 -480 -509 -9 -43 -10 -194 -2 -235 48 -245 221 -433 481 -524 129
-45 320 -52 461 -17 6 2 23 8 38 14 16 7 34 12 40 12 18 0 118 53 173 91 58
40 131 110 164 159 13 19 27 37 30 40 18 14 75 156 86 215 43 223 -45 462
-224 610 -88 73 -78 66 -152 101 -83 40 -124 54 -195 69 -58 13 -195 23 -195
15z m106 -260 c51 -11 104 -32 162 -64 36 -21 108 -99 135 -147 60 -108 73
-266 31 -369 -52 -125 -172 -236 -285 -263 -99 -24 -135 -25 -254 -3 -5 1 -25
9 -44 19 -19 9 -38 17 -42 17 -13 0 -48 29 -106 87 -50 49 -76 95 -106 179
-13 40 -16 177 -4 223 11 42 42 111 50 111 4 0 7 6 7 14 0 23 101 118 160 150
94 51 195 67 296 46z"/>
<path d="M12703 5364 c3 -4 2 -14 -3 -24 -5 -10 -7 -20 -3 -23 3 -4 5 -74 5
-157 l-1 -151 35 30 35 31 208 0 208 0 0 -471 0 -472 -33 -33 c-20 -19 -28
-34 -21 -36 11 -3 332 -2 382 1 19 2 19 2 1 16 -48 36 -48 40 -48 528 0 252 2
461 5 464 3 2 96 4 206 3 208 -1 245 -7 256 -42 11 -32 25 -19 26 25 1 23 0
47 -1 52 -1 6 -2 16 -1 23 2 23 2 37 1 72 0 19 0 64 1 100 1 40 -3 66 -10 68
-6 2 -11 -2 -11 -10 0 -7 -11 -20 -23 -29 -20 -14 -84 -16 -585 -17 l-562 0
-31 29 c-17 16 -34 29 -37 29 -3 0 -2 -3 1 -6z"/>
<path d="M11756 5323 c-2 -2 -24 -6 -50 -8 -65 -7 -162 -41 -216 -75 -142 -90
-194 -245 -128 -380 80 -162 256 -248 548 -265 225 -14 304 -36 365 -101 68
-71 24 -180 -90 -224 -92 -36 -298 -29 -495 16 -36 9 -74 17 -85 20 -91 18
-137 45 -140 82 -2 28 -15 29 -30 2 -21 -37 -85 -169 -85 -175 0 -3 -7 -19
-16 -36 -9 -17 -18 -43 -20 -57 -4 -21 -3 -23 10 -13 23 20 86 16 151 -9 33
-12 69 -24 80 -26 11 -2 31 -5 45 -8 14 -3 39 -8 55 -11 17 -3 44 -8 60 -11
17 -3 118 -7 226 -9 204 -4 269 5 372 48 135 58 216 202 203 362 -8 99 -32
153 -95 216 -46 45 -164 101 -243 114 -18 3 -40 8 -48 10 -8 2 -49 7 -90 10
-41 4 -78 9 -82 12 -5 2 -8 -1 -8 -7 0 -6 -4 -9 -10 -5 -5 3 -46 7 -92 9 -124
6 -202 26 -260 65 -69 48 -70 104 -6 181 18 21 103 57 158 66 57 9 201 10 260
0 153 -24 348 -123 339 -172 -5 -27 1 -35 16 -20 8 8 15 17 15 20 0 3 20 40
45 82 25 41 45 78 45 80 0 2 12 23 26 46 l26 41 -29 -8 c-15 -4 -36 -8 -45
-10 -10 -2 -57 17 -105 41 -48 25 -88 45 -88 44 0 -1 -19 5 -65 20 -26 9 -83
24 -135 36 -32 7 -283 13 -289 7z"/>
<path d="M3645 5303 c-2 -7 2 -13 10 -13 9 0 24 -15 35 -32 19 -32 20 -52 20
-571 0 -579 0 -580 -51 -608 -13 -6 -17 -14 -11 -18 8 -5 356 -7 395 -2 4 1
-7 16 -26 35 -19 18 -35 40 -36 47 -1 8 -2 109 -4 225 -2 196 -1 212 15 209
10 -2 20 1 23 6 4 5 11 7 16 3 17 -10 59 -12 65 -2 3 4 10 5 17 1 6 -3 61 -6
122 -5 l111 2 41 -73 c23 -39 53 -94 68 -122 15 -27 35 -63 45 -80 37 -63 80
-144 80 -151 0 -10 -81 -84 -94 -85 -6 0 -3 -4 7 -7 13 -6 482 -8 520 -3 16 2
5 17 -23 29 -40 18 -94 74 -120 125 -12 23 -31 58 -42 77 -12 19 -32 58 -46
85 -14 28 -28 52 -31 55 -16 14 -81 151 -76 160 3 5 15 10 26 10 27 0 97 53
129 97 47 67 69 134 75 232 11 180 -73 303 -250 366 -44 16 -98 17 -542 19
-362 1 -464 -2 -468 -11z m841 -208 c131 -39 178 -159 99 -254 -48 -57 -85
-64 -350 -65 -132 -1 -244 -1 -250 1 -6 2 -9 65 -9 166 1 89 2 163 3 165 1 1
104 2 229 2 173 0 241 -4 278 -15z"/>
<path d="M6907 5308 c-8 -5 -5 -13 11 -23 48 -35 48 -34 47 -614 l-1 -544 -32
-28 c-18 -16 -32 -32 -32 -36 0 -5 90 -8 200 -8 110 0 200 2 200 3 0 2 -16 22
-35 44 l-34 41 0 218 0 219 27 1 c15 1 32 0 37 -1 11 -2 45 -3 165 -1 41 1
145 1 230 1 202 0 225 3 286 29 108 47 183 180 186 331 4 182 -95 312 -272
360 -50 14 -963 21 -983 8z m836 -214 c97 -34 142 -90 133 -165 -7 -57 -42
-105 -95 -131 -42 -20 -61 -22 -285 -23 -133 -1 -247 1 -253 3 -10 3 -13 46
-13 168 l0 165 236 -1 c180 -1 245 -5 277 -16z"/>
<path d="M8438 5312 c-21 -2 -38 -7 -38 -13 0 -5 5 -9 11 -9 22 0 65 -65 49
-75 -6 -4 -7 -11 -4 -17 6 -9 9 -160 4 -183 -1 -5 -2 -14 -1 -20 8 -41 4 -915
-3 -915 -6 0 -5 -5 2 -12 9 -9 141 -12 533 -13 l521 0 29 -33 c23 -25 29 -29
30 -15 3 45 4 319 1 329 -1 6 -18 -3 -35 -20 l-33 -31 -365 1 c-200 1 -372 2
-381 3 -15 1 -17 38 -17 476 l0 475 29 34 c17 18 30 35 30 37 0 5 -310 5 -362
1z"/>
<path d="M10208 5312 c-31 -4 -39 -22 -10 -22 9 0 28 -9 41 -19 l24 -19 -117
-233 c-353 -701 -433 -857 -451 -880 -11 -15 -35 -36 -52 -48 -18 -12 -33 -25
-33 -29 0 -5 393 -8 435 -3 6 1 -11 14 -36 30 l-46 29 67 134 68 133 287 0
c181 0 290 -3 295 -10 4 -5 35 -64 69 -130 l60 -119 -21 -23 c-12 -13 -30 -23
-41 -23 -10 0 -17 -5 -15 -12 3 -9 60 -12 214 -13 115 -1 213 1 217 3 4 2 -9
16 -30 31 -21 15 -44 35 -51 44 -8 9 -139 266 -292 571 l-279 555 45 22 c25
11 43 23 40 26 -5 5 -347 10 -388 5z m282 -555 c50 -98 90 -180 90 -182 0 -2
-85 -3 -190 -4 -104 0 -190 3 -190 7 0 21 186 377 193 368 4 -6 48 -91 97
-189z"/>
</g>
</svg>
