<svg version="1.1"
	 xmlns="http://www.w3.org/2000/svg" xmlns:xlink="http://www.w3.org/1999/xlink" xmlns:a="http://ns.adobe.com/AdobeSVGViewerExtensions/3.0/"
	 x="0px" y="0px" width="914px" height="334.334px" viewBox="0 0 914 334.334"
	 overflow="scroll" enable-background="new 0 0 914 334.334" xml:space="preserve">
<defs>
</defs>
<rect x="714.667" y="188.333" fill="#3D4647" width="39" height="28.667"/>
<rect x="843" y="188.333" fill="#3D4647" width="24.333" height="28.667"/>
<rect x="464.667" y="50" fill="#68C9CF" width="16" height="154"/>
<rect x="265.333" y="50" fill="#68C9CF" width="191.333" height="154"/>
<rect x="284" y="66" fill="#1E314B" width="149.333" height="122.667"/>
<rect x="485.333" y="62" fill="#68C9CF" width="51.333" height="130"/>
<polygon fill="#7B7D7E" points="98.667,212.334 98.667,232.667 132.667,232.667 132.667,334.334 889.333,334.334 889.333,212.334 
	"/>
<rect x="164.001" y="233.835" fill="none" stroke="#000000" stroke-miterlimit="10" width="107.333" height="82"/>
<rect x="526.001" y="233.835" fill="none" stroke="#000000" stroke-miterlimit="10" width="112.667" height="82"/>
<rect x="638.668" y="233.835" fill="none" stroke="#000000" stroke-miterlimit="10" width="112" height="82"/>
<rect x="768.668" y="233.835" fill="none" stroke="#000000" stroke-miterlimit="10" width="103.333" height="82"/>
<rect x="302.001" y="232.834" fill="#2C3335" width="147.333" height="83.001"/>
<polygon fill="#68C9CF" points="742.628,98 734.616,110.667 673.333,110.667 673.333,192 914,192 914,98 "/>
<rect x="456.667" y="50" fill="#353535" width="8" height="154"/>
<rect x="480.667" y="62" fill="#353535" width="4.667" height="130"/>
<polygon fill="#D6D0AB" points="5.221,44.751 0,53.103 0,54.003 265.333,54.003 265.333,44.751 "/>
<polygon fill="#F6F3E0" points="0,53.002 0,202 2.375,202 2.375,203.333 265.333,203.333 265.333,53.002 "/>
<polygon fill="#D6D0AB" points="0,201.827 6.258,211.079 265.253,211.079 265.253,201.827 "/>
<polygon fill="#68C9CF" points="690.323,110.667 667.8,84.667 645.277,58.667 690.323,58.667 735.369,58.667 712.846,84.667 "/>
<rect x="645.333" y="0" fill="#68C9CF" width="90" height="58.667"/>
<rect x="679.063" y="91.646" fill="#68C9CF" width="7.917" height="15.063"/>
<rect x="693.667" y="91.646" fill="#68C9CF" width="7.917" height="15.063"/>
<rect x="675.292" y="102.75" fill="#8E8B8C" width="30.125" height="7.917"/>
<rect x="679.056" y="97.646" fill="#59A8AA" width="22.534" height="0.5"/>
<circle fill="#2C3335" cx="787.333" cy="298.667" r="9.333"/>
<circle fill="#2C3335" cx="614.333" cy="298.667" r="9.333"/>
<circle fill="#2C3335" cx="856" cy="298.667" r="9.333"/>
<g>
	<rect x="492.333" y="92.168" fill="#364F56" width="37.333" height="72"/>
	<rect x="499" y="100.168" fill="#253033" width="24" height="17.333"/>
	<rect x="494.333" y="94.834" fill="none" stroke="#FFFFFF" stroke-miterlimit="10" width="33.333" height="60"/>
	<circle fill="#EB2624" cx="521.918" cy="159.5" r="2.667"/>
	<rect x="501.001" y="122.834" fill="#FFFFFF" width="2.75" height="2.75"/>
	<rect x="505.564" y="122.834" fill="#FFFFFF" width="2.75" height="2.75"/>
	<rect x="510.126" y="122.834" fill="#FFFFFF" width="2.75" height="2.75"/>
	<rect x="514.689" y="122.834" fill="#FFFFFF" width="2.75" height="2.75"/>
	<rect x="519.251" y="122.834" fill="#FFFFFF" width="2.75" height="2.75"/>
	<rect x="501.001" y="128.412" fill="#FFFFFF" width="2.75" height="2.75"/>
	<rect x="505.564" y="128.412" fill="#FFFFFF" width="2.75" height="2.75"/>
	<rect x="510.126" y="128.412" fill="#FFFFFF" width="2.75" height="2.75"/>
	<rect x="514.689" y="128.412" fill="#FFFFFF" width="2.75" height="2.75"/>
	<rect x="519.251" y="128.412" fill="#FFFFFF" width="2.75" height="2.75"/>
	<rect x="501.001" y="133.991" fill="#FFFFFF" width="2.75" height="2.75"/>
	<rect x="505.564" y="133.991" fill="#FFFFFF" width="2.75" height="2.75"/>
	<rect x="510.126" y="133.991" fill="#FFFFFF" width="2.75" height="2.75"/>
	<rect x="514.689" y="133.991" fill="#FFFFFF" width="2.75" height="2.75"/>
	<rect x="519.251" y="133.991" fill="#FFFFFF" width="2.75" height="2.75"/>
	<rect x="501.001" y="139.569" fill="#FFFFFF" width="2.75" height="2.75"/>
	<rect x="505.564" y="139.569" fill="#FFFFFF" width="2.75" height="2.75"/>
	<rect x="510.126" y="139.569" fill="#FFFFFF" width="2.75" height="2.75"/>
	<rect x="514.689" y="139.569" fill="#FFFFFF" width="2.75" height="2.75"/>
	<rect x="519.251" y="139.569" fill="#FFFFFF" width="2.75" height="2.75"/>
</g>
<rect x="536.667" y="127.194" fill="#3D4647" width="136.667" height="5.25"/>
<rect x="536.667" y="132.444" fill="#E6E6E3" width="136.667" height="25"/>
<rect x="536.667" y="141.194" fill="#646B6E" width="136.667" height="7.5"/>
<rect x="536.667" y="143.951" fill="#FFFFFF" width="136.667" height="1.985"/>
<rect x="744" y="108.834" fill="#1E314B" width="52.667" height="10.832"/>
</svg>